<?xml version="1.0" encoding="UTF-8" standalone="no"?>
<!-- Created with Inkscape (http://www.inkscape.org/) -->

<svg
   width="128"
   height="128"
   viewBox="0 0 33.866667 33.866667"
   version="1.1"
   id="svg1"
   xml:space="preserve"
   xmlns="http://www.w3.org/2000/svg"
   xmlns:svg="http://www.w3.org/2000/svg"><defs
     id="defs1" /><g
     id="layer1"
     transform="translate(-425.23334)"><path
       fill="currentColor"
       d="m 98.702631,15.223142 a 2.9140982,2.9140982 0 1 0 0,5.828193 2.9140982,2.9140982 0 0 0 0,-5.828193 m 0,-1.942733 a 4.8568305,4.8568305 0 1 1 0,9.71366 4.8568305,4.8568305 0 0 1 0,-9.71366 m 6.313909,-0.242838 a 1.21422,1.21422 0 0 1 -2.42844,0 1.21422,1.21422 0 0 1 2.42844,0 m -6.313909,-2.671254 c -2.4031,0 -2.79553,0.0069 -3.91364,0.05635 -0.76154,0.03577 -1.27245,0.137932 -1.74647,0.322511 a 2.8033623,2.8033623 0 0 0 -1.04906,0.682873 2.8072477,2.8072477 0 0 0 -0.68383,1.049072 c -0.18473,0.475975 -0.28714,0.985937 -0.32144,1.746518 -0.0524,1.072389 -0.0568,1.447334 -0.0568,3.913631 0,2.404133 0.005,2.79559 0.0559,3.913633 0.0343,0.760581 0.13818,1.272492 0.32144,1.745547 0.16463,0.422567 0.35916,0.726581 0.68187,1.049072 0.3278,0.326382 0.6314,0.521628 1.04906,0.682874 0.48019,0.18551 0.99081,0.288506 1.74848,0.323491 1.07239,0.05052 1.44733,0.05635 3.91359,0.05635 2.404179,0 2.795639,-0.0069 3.913689,-0.05635 0.75964,-0.03577 1.2705,-0.137932 1.74554,-0.321531 a 2.826675,2.826675 0 0 0 1.04907,-0.682874 c 0.3278,-0.326381 0.52248,-0.630415 0.68383,-1.049072 0.18472,-0.477886 0.28762,-0.988852 0.32241,-1.748463 0.0524,-1.071415 0.0559,-1.447335 0.0559,-3.912657 0,-2.403162 -0.005,-2.795595 -0.0559,-3.913632 -0.0343,-0.759611 -0.13867,-1.272492 -0.32241,-1.746518 a 2.8286177,2.8286177 0 0 0 -0.68285,-1.049076 2.8014196,2.8014195 0 0 0 -1.04907,-0.683838 c -0.47578,-0.184579 -0.98688,-0.286546 -1.74652,-0.321531 -1.07141,-0.05052 -1.44635,-0.05635 -3.913689,-0.05635 m 0,-1.9427348 c 2.639229,0 2.968549,0.0098 4.004979,0.05831 1.03353,0.04851 1.73878,0.210793 2.35749,0.451672 0.6411,0.246709 1.18121,0.580877 1.72128,1.1199838 a 4.7674643,4.7674643 0 0 1 1.11997,1.721263 c 0.24009,0.618758 0.40326,1.32397 0.45177,2.358475 0.049,1.035474 0.0583,1.364766 0.0583,4.003971 0,2.6392 -0.01,2.968492 -0.0583,4.003967 -0.049,1.034505 -0.21217,1.738747 -0.45177,2.358475 a 4.7441515,4.7441515 0 0 1 -1.11997,1.721264 4.7742639,4.7742639 0 0 1 -1.72128,1.119983 c -0.61871,0.239948 -1.32396,0.403114 -2.35749,0.451672 -1.03643,0.04557 -1.36575,0.05826 -4.004979,0.05826 -2.63918,0 -2.96845,-0.0098 -4.00487,-0.05826 -1.03359,-0.04851 -1.7378,-0.211773 -2.35754,-0.451672 a 4.7499797,4.7499797 0 0 1 -1.72128,-1.119983 4.7645504,4.7645504 0 0 1 -1.11997,-1.721264 c -0.24059,-0.618758 -0.40326,-1.32397 -0.45177,-2.358475 -0.049,-1.035475 -0.0583,-1.364767 -0.0583,-4.003967 0,-2.639205 0.01,-2.968497 0.0583,-4.003971 0.049,-1.034505 0.21118,-1.738747 0.45177,-2.358475 a 4.7402661,4.7402661 0 0 1 1.11997,-1.721263 4.7567793,4.7567793 0 0 1 1.72128,-1.1199838 c 0.61871,-0.240879 1.32302,-0.403114 2.35754,-0.451672 1.0374,-0.04557 1.36667,-0.05831 4.00585,-0.05831"
       id="path1-7"
       style="fill:#f9f9f9;fill-opacity:1;stroke:none;stroke-width:0.971364"
       transform="translate(343.46492,-1.2039249)" /><path
       id="circle6"
       style="opacity:1;fill:none;fill-opacity:0;stroke:#fcfcfc;stroke-width:1.32292;stroke-linecap:square;stroke-linejoin:round;paint-order:stroke fill markers"
       d="M 458.27713,16.933334 A 16.110447,16.110447 0 0 1 442.16669,33.043781 16.110447,16.110447 0 0 1 426.05624,16.933334 16.110447,16.110447 0 0 1 442.16669,0.82288742 16.110447,16.110447 0 0 1 458.27713,16.933334 Z" /></g></svg>
