<?xml version="1.0" encoding="UTF-8" standalone="no"?>
<!-- Created with Inkscape (http://www.inkscape.org/) -->

<svg
   width="128"
   height="128"
   viewBox="0 0 33.866667 33.866667"
   version="1.1"
   id="svg1"
   xml:space="preserve"
   xmlns="http://www.w3.org/2000/svg"
   xmlns:svg="http://www.w3.org/2000/svg"><defs
     id="defs1" /><g
     id="layer1"
     transform="translate(-343.46492,1.2039249)"><path
       fill="currentColor"
       d="m 366.57669,6.0157598 h 3.29705 l -7.20118,8.2285802 8.47142,11.198719 h -6.63143 l -5.19774,-6.790219 -5.94027,6.790219 h -3.30171 l 7.70087,-8.802997 -8.12117,-10.6243022 h 6.79956 l 4.69337,6.2064602 z m -1.15816,17.4565482 h 1.82598 L 355.45737,7.8837685 h -1.96141 z"
       id="path1"
       style="fill:#ffffff;fill-opacity:1;stroke-width:0.0467004"
       transform="translate(4.7444399e-6)" /><path
       id="circle2"
       style="opacity:1;fill:none;fill-opacity:0;stroke:#fcfcfc;stroke-width:1.32292;stroke-linecap:square;stroke-linejoin:round;paint-order:stroke fill markers"
       d="M 376.5087,15.729409 A 16.110447,16.110447 0 0 1 360.39825,31.839856 16.110447,16.110447 0 0 1 344.28781,15.729409 16.110447,16.110447 0 0 1 360.39825,-0.38103771 16.110447,16.110447 0 0 1 376.5087,15.729409 Z" /></g></svg>
