<?xml version="1.0" encoding="UTF-8" standalone="no"?>
<!-- Created with Inkscape (http://www.inkscape.org/) -->

<svg
   width="128"
   height="128"
   viewBox="0 0 33.866667 33.866667"
   version="1.1"
   id="svg1"
   xml:space="preserve"
   xmlns="http://www.w3.org/2000/svg"
   xmlns:svg="http://www.w3.org/2000/svg"><defs
     id="defs1" /><g
     id="layer1"
     transform="translate(-381.36668)"><path
       fill="currentColor"
       d="m 51.628565,29.00862 h 4.577395 v -9.166273 h 4.124216 l 0.45355,-4.554528 h -4.577407 v -2.30015 a 1.1443536,1.1443536 0 0 1 1.144343,-1.144354 h 3.433064 V 7.2659001 h -3.433064 a 5.7217685,5.7217685 0 0 0 -5.721907,5.7217689 v 2.30015 h -2.288743 l -0.453549,4.554528 h 2.741889 z"
       id="path1-6"
       style="fill:#ffffff;fill-opacity:1;stroke-width:1.14435"
       transform="translate(343.46492,-1.2039249)" /><path
       id="circle1"
       style="opacity:1;fill:none;fill-opacity:0;stroke:#fcfcfc;stroke-width:1.32292;stroke-linecap:square;stroke-linejoin:round;paint-order:stroke fill markers"
       d="M 414.41047,16.933334 A 16.110447,16.110447 0 0 1 398.30002,33.043781 16.110447,16.110447 0 0 1 382.18957,16.933334 16.110447,16.110447 0 0 1 398.30002,0.82288742 16.110447,16.110447 0 0 1 414.41047,16.933334 Z" /></g></svg>
